<?xml version="1.0" encoding="UTF-8"?>
<!DOCTYPE svg PUBLIC "-//W3C//DTD SVG 1.1//EN" "http://www.w3.org/Graphics/SVG/1.1/DTD/svg11.dtd">
<!-- Creator: CorelDRAW -->
<svg xmlns="http://www.w3.org/2000/svg" xml:space="preserve" width="116.445mm" height="46.9748mm" shape-rendering="geometricPrecision" text-rendering="geometricPrecision" image-rendering="optimizeQuality" fill-rule="evenodd" clip-rule="evenodd"
viewBox="0 0 104.033 41.968"
 xmlns:xlink="http://www.w3.org/1999/xlink">
 <g id="Capa_x0020_1">
  <metadata id="CorelCorpID_0Corel-Layer"/>
  <path fill="#008BCD" d="M86.1489 7.07388l-19.8716 0 0 7.94862 -7.94862 0 0 11.923 7.94862 0 0 7.94862 19.8716 0 0 -7.94862 7.94862 0 0 7.94862 9.93575 0 0 -27.8202 -9.93575 0 0 7.94862 -7.94862 0 0 -7.94862zm-9.93584 1.98713l-7.94862 0 0 7.94862 -7.94862 0 0 7.94871 7.94862 0 0 7.94862 7.94862 0 0 -7.94862 7.91494 0 0 -7.95032 -7.91494 0.00160815 0 -7.94862z"/>
  <path fill="#008BCD" fill-rule="nonzero" d="M-0 24.9272l0 -7.80871 1.57804 0 0 3.07263 3.08898 0 0 -3.07263 1.57625 0 0 7.80871 -1.57625 0 0 -3.41436 -3.08898 0 0 3.41436 -1.57804 0zm6.99535 -3.85616c0,-0.7963 0.118199,-1.46359 0.356383,-2.00357 0.178147,-0.396319 0.419994,-0.754488 0.727239,-1.07085 0.307245,-0.314482 0.643616,-0.549003 1.00902,-0.701777 0.487268,-0.207183 1.04717,-0.309032 1.68355,-0.309032 1.15081,0 2.07076,0.356294 2.76163,1.07085 0.690877,0.712677 1.03636,1.70535 1.03636,2.97623 0,1.26168 -0.343607,2.24712 -1.02903,2.95979 -0.685428,0.71089 -1.60171,1.06727 -2.74716,1.06727 -1.16171,0 -2.08532,-0.354596 -2.77075,-1.06182 -0.685428,-0.709014 -1.02725,-1.68534 -1.02725,-2.92709zm1.6236 -0.0527115c0,0.883587 0.205396,1.55445 0.612704,2.01081 0.409005,0.456356 0.927186,0.683551 1.55624,0.683551 0.627266,0 1.14357,-0.225408 1.54722,-0.679978 0.401768,-0.452693 0.603591,-1.13079 0.603591,-2.03618 0,-0.894487 -0.196372,-1.56178 -0.587241,-2.00357 -0.392745,-0.440007 -0.914499,-0.659965 -1.56356,-0.659965 -0.650852,0 -1.17448,0.223622 -1.57268,0.669078 -0.396319,0.445456 -0.596265,1.11632 -0.596265,2.01626zm6.22272 1.36898l1.53444 -0.150898c0.0909496,0.516394 0.278209,0.894487 0.561779,1.13633 0.281783,0.239971 0.661841,0.361833 1.14178,0.361833 0.507281,0 0.890824,-0.107299 1.14723,-0.323684 0.258107,-0.214509 0.387206,-0.46538 0.387206,-0.752702 0,-0.185383 -0.0544983,-0.341731 -0.163584,-0.470829 -0.107299,-0.130885 -0.296346,-0.243634 -0.567229,-0.338157 -0.183686,-0.0654873 -0.605467,-0.178236 -1.26177,-0.34182 -0.845438,-0.209059 -1.43813,-0.467256 -1.77807,-0.772714 -0.480032,-0.429018 -0.720003,-0.952648 -0.720003,-1.5708 0,-0.398195 0.112749,-0.769051 0.338157,-1.11632 0.225498,-0.345394 0.550879,-0.609041 0.974536,-0.79085 0.425444,-0.180023 0.936298,-0.270883 1.53623,-0.270883 0.981773,0 1.71813,0.214509 2.21442,0.643616 0.494594,0.430894 0.754578,1.00357 0.779951,1.7217l-1.57625 0.0690609c-0.0672741,-0.401768 -0.212722,-0.690877 -0.434467,-0.865361 -0.221835,-0.17636 -0.554542,-0.263647 -0.998123,-0.263647 -0.458232,0 -0.818189,0.0927364 -1.07639,0.281783 -0.167247,0.119986 -0.250871,0.281872 -0.250871,0.483605 0,0.185473 0.0781738,0.343697 0.234521,0.474582 0.198159,0.167247 0.681765,0.341731 1.44903,0.521754 0.767264,0.18181 1.33449,0.36907 1.70178,0.561779 0.367193,0.194586 0.654426,0.458143 0.863574,0.794513 0.207272,0.336371 0.310908,0.750915 0.310908,1.24354 0,0.447243 -0.123649,0.867237 -0.372733,1.25632 -0.249084,0.390869 -0.600017,0.681765 -1.0545,0.8709 -0.454569,0.190833 -1.0218,0.285446 -1.6999,0.285446 -0.987223,0 -1.74537,-0.227285 -2.27445,-0.683641 -0.52908,-0.456356 -0.845349,-1.12177 -0.947198,-1.99446zm7.11721 2.53989l0 -7.80871 2.5289 0c0.958187,0 1.58358,0.040025 1.87447,0.118199 0.447243,0.116412 0.823639,0.370946 1.12543,0.763601 0.301795,0.392745 0.452693,0.899936 0.452693,1.51997 0,0.479942 -0.0872866,0.883587 -0.26186,1.20897 -0.174484,0.327258 -0.394442,0.583668 -0.663539,0.770927 -0.26731,0.185383 -0.53998,0.309032 -0.816313,0.36907 -0.376396,0.0745108 -0.921825,0.11266 -1.63629,0.11266l-1.02725 0 0 2.94532 -1.57625 0zm1.57625 -6.4869l0 2.21442 0.861788 0c0.621816,0 1.03815,-0.040025 1.24721,-0.121862 0.209059,-0.0817474 0.372733,-0.209059 0.492718,-0.383543 0.118199,-0.174573 0.178147,-0.376396 0.178147,-0.607254 0,-0.283659 -0.0836236,-0.51818 -0.250871,-0.703653 -0.16546,-0.183597 -0.378182,-0.299919 -0.632716,-0.345394 -0.189046,-0.036362 -0.567229,-0.0527115 -1.13446,-0.0527115l-0.761814 0zm5.09184 6.4869l0 -7.80871 1.57634 0 0 7.80871 -1.57634 0zm4.2774 0l0 -6.4869 -2.31627 0 0 -1.32181 6.20512 0 0 1.32181 -2.31082 0 0 6.4869 -1.57804 0zm10.5806 0l-1.71625 0 -0.681854 -1.77441 -3.12159 0 -0.643616 1.77441 -1.67265 0 3.04163 -7.80871 1.6672 0 3.12713 7.80871zm-2.90351 -3.08889l-1.0763 -2.89806 -1.0545 2.89806 2.13079 0zm3.2229 3.08889l0 -7.74501 1.57625 0 0 6.42874 3.91977 0 0 1.31627 -5.49602 0z"/>
  <path fill="#008BCD" d="M71.3924 39.2726l-0.612346 -0.874921c-0.0843383,-0.119181 -0.126507,-0.204592 -0.126507,-0.25641 0,-0.0390422 0.0135799,-0.0715625 0.0421692,-0.0971141 0.0273385,-0.0263557 0.058876,-0.0389529 0.0941659,-0.0389529 0.0578039,0 0.159206,0.0508353 0.305905,0.15197l0.844277 0.568926 0.179219 -0.980522c0.0352899,-0.181542 0.0688823,-0.291342 0.0992583,-0.330117 0.0308228,-0.0392209 0.0699544,-0.0593227 0.118377,-0.0593227 0.0463682,0 0.0854104,0.0191191 0.117037,0.0568212 0.0309121,0.0382381 0.0631644,0.14929 0.0985436,0.332618l0.179219 0.980522 0.844187 -0.568926c0.149111,-0.101135 0.250067,-0.15197 0.305994,-0.15197 0.037166,0 0.0697757,0.0125971 0.0960421,0.0389529 0.0266238,0.0255517 0.0402036,0.0570892 0.0402036,0.0938085 0,0.0539622 -0.0421692,0.140534 -0.126418,0.259716l-0.60913 0.874921 1.06593 0.213258c0.119271,0.0252836 0.195211,0.0475296 0.225945,0.0686142 0.0306441,0.0198338 0.0461895,0.0569998 0.0461895,0.107567 0,0.0517287 -0.0155454,0.0888054 -0.047351,0.10989 -0.0326096,0.021978 -0.106584,0.0441347 -0.224783,0.0662914l-1.06593 0.216385 0.60913 0.871883c0.084249,0.119092 0.126418,0.204592 0.126418,0.256231 0,0.0413651 -0.0135799,0.0739747 -0.0421692,0.099437 -0.0272491,0.0241222 -0.0581613,0.0367193 -0.0909496,0.0367193 -0.0578933,0 -0.160011,-0.0496738 -0.309121,-0.148754l-0.844187 -0.568926 -0.179219 0.977306c-0.0353792,0.183418 -0.0676315,0.29438 -0.0985436,0.332708 -0.0316269,0.0377021 -0.0706691,0.0567318 -0.117037,0.0567318 -0.0484231,0 -0.0875546,-0.0190297 -0.118377,-0.0559277 -0.0303761,-0.0368087 -0.0639685,-0.147771 -0.0992583,-0.333512l-0.179219 -0.977306 -0.844277 0.568926c-0.149111,0.0990797 -0.250067,0.148754 -0.305905,0.148754 -0.0372554,0 -0.0697757,-0.0125971 -0.0961314,-0.0390422 -0.0266238,-0.025373 -0.0402036,-0.0569105 -0.0402036,-0.0937192 0,-0.0539622 0.0421692,-0.140534 0.126507,-0.259626l0.612346 -0.871883 -1.06924 -0.216385c-0.121415,-0.0221567 -0.197445,-0.0443134 -0.22791,-0.0662914 -0.0297507,-0.0210846 -0.0441347,-0.0592334 -0.0441347,-0.113285 0,-0.0502992 0.0154561,-0.0873759 0.0472616,-0.107299 0.032699,-0.0210846 0.106584,-0.0421692 0.224783,-0.0654873l1.06924 -0.213258zm0 -37.3562l-0.612346 -0.87501c-0.0843383,-0.119092 -0.126507,-0.204592 -0.126507,-0.256321 0,-0.0390422 0.0135799,-0.0716518 0.0421692,-0.0971141 0.0273385,-0.0263557 0.058876,-0.0389529 0.0941659,-0.0389529 0.0578039,0 0.159206,0.0508353 0.305905,0.15197l0.844277 0.568926 0.179219 -0.980522c0.0352899,-0.181542 0.0688823,-0.291342 0.0992583,-0.330206 0.0308228,-0.0391316 0.0699544,-0.0592334 0.118377,-0.0592334 0.0463682,0 0.0854104,0.0190297 0.117037,0.0567318 0.0309121,0.0383275 0.0631644,0.14929 0.0985436,0.332708l0.179219 0.980522 0.844187 -0.568926c0.149111,-0.101135 0.250067,-0.15197 0.305994,-0.15197 0.037166,0 0.0697757,0.0125971 0.0960421,0.0389529 0.0266238,0.0254623 0.0402036,0.0569998 0.0402036,0.0938085 0,0.0539622 -0.0421692,0.140534 -0.126418,0.259626l-0.60913 0.87501 1.06593 0.213258c0.119271,0.0252836 0.195211,0.0475296 0.225945,0.0685249 0.0306441,0.0199231 0.0461895,0.0569998 0.0461895,0.107656 0,0.0517287 -0.0155454,0.0887161 -0.047351,0.10989 -0.0326096,0.0218887 -0.106584,0.0440453 -0.224783,0.0662914l-1.06593 0.216296 0.60913 0.871883c0.084249,0.119181 0.126418,0.204592 0.126418,0.256231 0,0.0413651 -0.0135799,0.0740641 -0.0421692,0.0995264 -0.0272491,0.0241222 -0.0581613,0.0367193 -0.0909496,0.0367193 -0.0578933,0 -0.160011,-0.0497632 -0.309121,-0.148754l-0.844187 -0.568926 -0.179219 0.977306c-0.0353792,0.183329 -0.0676315,0.29438 -0.0985436,0.332618 -0.0316269,0.0377021 -0.0706691,0.0568212 -0.117037,0.0568212 -0.0484231,0 -0.0875546,-0.0191191 -0.118377,-0.0560171 -0.0303761,-0.0367193 -0.0639685,-0.147681 -0.0992583,-0.333422l-0.179219 -0.977306 -0.844277 0.568926c-0.149111,0.0989903 -0.250067,0.148754 -0.305905,0.148754 -0.0372554,0 -0.0697757,-0.0125971 -0.0961314,-0.0391316 -0.0266238,-0.025373 -0.0402036,-0.0569105 -0.0402036,-0.0936298 0,-0.0539622 0.0421692,-0.140534 0.126507,-0.259716l0.612346 -0.871883 -1.06924 -0.216296c-0.121415,-0.022246 -0.197445,-0.0444027 -0.22791,-0.0662914 -0.0297507,-0.0211739 -0.0441347,-0.0593227 -0.0441347,-0.113374 0,-0.0502099 0.0154561,-0.0873759 0.0472616,-0.10721 0.032699,-0.0211739 0.106584,-0.0421692 0.224783,-0.0654873l1.06924 -0.213258zm6.31197 36.5759l-0.874563 -0.612793c-0.119986,-0.0831769 -0.188868,-0.148932 -0.206557,-0.197623 -0.0134012,-0.0367193 -0.0116144,-0.0720092 0.00643258,-0.105691 0.0166175,-0.0341284 0.0419905,-0.0567318 0.0751362,-0.0687929 0.0544089,-0.0197445 0.166979,-0.00670061 0.339497,0.0381488l0.987848 0.245868 -0.16689 -0.982667c-0.0289466,-0.182703 -0.0349325,-0.297418 -0.0196551,-0.344233 0.0155454,-0.047351 0.0454748,-0.0796032 0.0909496,-0.0961314 0.0435986,-0.0159028 0.0868399,-0.0113464 0.129366,0.0132225 0.0421692,0.0254623 0.110515,0.118645 0.206379,0.278924l0.503796 0.860179 0.598677 -0.82346c0.105602,-0.145984 0.183061,-0.228267 0.235593,-0.247297 0.0349325,-0.0128652 0.069865,-0.0121504 0.103636,0.00357366 0.0336817,0.01492 0.0571785,0.0399356 0.0697757,0.0745108 0.0184937,0.0506566 0.00848744,0.146431 -0.0299294,0.287233l-0.273117 1.03055 1.07451 -0.16421c0.1207,-0.0171536 0.199767,-0.0221567 0.235772,-0.0128652 0.0356472,0.00821941 0.0629857,0.0377914 0.0802286,0.0853211 0.0176896,0.0486911 0.0157241,0.0887161 -0.00687929,0.11945 -0.0232288,0.0318056 -0.0851424,0.0779057 -0.1886,0.139194l-0.927632 0.567854 0.870543 0.611006c0.119986,0.0830875 0.188778,0.148932 0.206468,0.197445 0.0142053,0.0388635 0.0125971,0.0743321 -0.00553917,0.108014 -0.0174216,0.0319842 -0.0420798,0.0543196 -0.0729026,0.0655766 -0.0544983,0.0197445 -0.167337,0.00795139 -0.341374,-0.0340391l-0.987938 -0.245868 0.165907 0.979629c0.0294827,0.184311 0.0370767,0.299741 0.0212633,0.346377 -0.0169749,0.0461002 -0.0470829,0.077459 -0.0907709,0.0932725 -0.0453855,0.0166175 -0.0886267,0.0120611 -0.130349,-0.0120611 -0.0410971,-0.0242115 -0.110515,-0.116859 -0.207272,-0.27946l-0.502724 -0.857052 -0.598677 0.823371c-0.106227,0.144018 -0.184133,0.22523 -0.236576,0.244349 -0.0351112,0.0127758 -0.0699544,0.0120611 -0.103636,-0.00375234 -0.0336817,-0.0147413 -0.0573572,-0.0397569 -0.0699544,-0.0742427 -0.018315,-0.0507459 -0.0083981,-0.14652 0.0301081,-0.287322l0.277226 -1.02877 -1.07871 0.162333c-0.121683,0.0208166 -0.20075,0.025909 -0.236844,0.0158134 -0.0352005,-0.00973822 -0.0618243,-0.0407397 -0.080318,-0.0913963 -0.0171536,-0.047351 -0.0152774,-0.0875546 0.00777271,-0.117037 0.0234968,-0.0310015 0.0857678,-0.0760296 0.188868,-0.13839l0.931653 -0.566067zm-12.7765 -35.1034l-0.874653 -0.612704c-0.120075,-0.0830875 -0.188778,-0.149022 -0.206557,-0.197713 -0.0133119,-0.03663 -0.0117037,-0.0718305 0.00643258,-0.105512 0.0165282,-0.0342178 0.0419011,-0.0568212 0.0751362,-0.0688823 0.0543196,-0.0198338 0.167068,-0.00670061 0.339408,0.0381488l0.987938 0.245778 -0.166979 -0.982667c-0.0289466,-0.182703 -0.0348432,-0.297239 -0.0195658,-0.344233 0.0155454,-0.0472616 0.0453855,-0.0796032 0.0909496,-0.0961314 0.0435093,-0.0159028 0.0868399,-0.0113464 0.129456,0.0133119 0.0419905,0.025373 0.110337,0.118735 0.206289,0.278924l0.503796 0.86009 0.598766 -0.823371c0.105423,-0.145984 0.182971,-0.228357 0.235415,-0.247386 0.0351112,-0.0126865 0.0699544,-0.0119718 0.103636,0.00375234 0.0336817,0.0148307 0.0573572,0.0397569 0.069865,0.0743321 0.0184043,0.0507459 0.00848744,0.14652 -0.0300187,0.287322l-0.273117 1.03046 1.0746 -0.16421c0.1207,-0.0169749 0.199678,-0.021978 0.235861,-0.0127758 0.0354686,0.00821941 0.062807,0.0377021 0.0801393,0.0853211 0.0176896,0.0486017 0.0158134,0.0887161 -0.00687929,0.11945 -0.0232288,0.0317162 -0.0850531,0.0779057 -0.1886,0.139105l-0.927722 0.568033 0.870632 0.610917c0.119986,0.0830875 0.188868,0.148932 0.206468,0.197534 0.0141159,0.0388635 0.0125078,0.0741534 -0.00562851,0.107835 -0.0173322,0.0319842 -0.0420798,0.0544089 -0.0729026,0.0655766 -0.0544089,0.0198338 -0.167337,0.00813007 -0.341374,-0.0340391l-0.987759 -0.245868 0.165728 0.979718c0.029572,0.184401 0.037166,0.299741 0.0212633,0.346287 -0.0167962,0.0462789 -0.0470829,0.0775484 -0.0905922,0.0934512 -0.0455641,0.0165282 -0.0888054,0.0119718 -0.130349,-0.0121504 -0.0410971,-0.0242115 -0.110694,-0.116948 -0.207361,-0.279371l-0.502724 -0.857142 -0.598766 0.823371c-0.106138,0.144108 -0.184043,0.225319 -0.236576,0.244349 -0.0349325,0.0126865 -0.0699544,0.0121504 -0.103636,-0.00384168 -0.0336817,-0.0147413 -0.0571785,-0.0396676 -0.0697757,-0.0742427 -0.0184937,-0.0506566 -0.00848744,-0.146431 0.0300187,-0.287233l0.277137 -1.02868 -1.07862 0.162333c-0.121772,0.0206379 -0.20084,0.025909 -0.236844,0.0156348 -0.0352899,-0.00955953 -0.0619136,-0.040561 -0.080318,-0.0913963 -0.0172429,-0.0471723 -0.0152774,-0.0873759 0.00768336,-0.116948 0.0234968,-0.0310015 0.0857678,-0.0761189 0.188957,-0.13839l0.931742 -0.566157zm-5.57098 3.59474l-1.03136 -0.276512c-0.141338,-0.037166 -0.228446,-0.0755829 -0.26177,-0.115161 -0.0251049,-0.0299294 -0.0356472,-0.0635218 -0.0301081,-0.101492 0.00384168,-0.0377021 0.0200125,-0.0676315 0.0470829,-0.0903242 0.0441347,-0.0372554 0.15465,-0.0634324 0.331903,-0.080318l1.01251 -0.106852 -0.492986 -0.866344c-0.0896988,-0.161797 -0.134459,-0.26731 -0.136067,-0.316715 -0.00160815,-0.0497632 0.0152774,-0.0903242 0.0525328,-0.121504 0.0353792,-0.02984 0.0776377,-0.0403823 0.12615,-0.0316269 0.048155,0.00929151 0.144376,0.073796 0.289198,0.191459l0.767622 0.635843 0.280979 -0.978467c0.0492271,-0.173233 0.0938979,-0.277137 0.136692,-0.313052 0.0285893,-0.0238542 0.0616456,-0.0352005 0.098633,-0.0318056 0.0368087,0.00232288 0.0675421,0.0176896 0.0912176,0.0459215 0.0345751,0.0414544 0.0579826,0.134727 0.0700437,0.280264l0.0956847 1.06164 0.953631 -0.521754c0.107656,-0.0571785 0.180202,-0.0889841 0.217189,-0.0926471 0.0362726,-0.00437773 0.0720092,0.0139373 0.104708,0.0527115 0.033235,0.0396676 0.0451174,0.0779057 0.0343071,0.114536 -0.0110783,0.0378808 -0.0533368,0.102385 -0.129634,0.1953l-0.677566 0.851067 1.02716 0.276333c0.14107,0.0369874 0.228357,0.0754042 0.261502,0.115072 0.0266238,0.0316269 0.0370767,0.0653086 0.0316269,0.1031 -0.00536049,0.0360046 -0.0209059,0.0654873 -0.0460108,0.0866612 -0.0443134,0.037166 -0.154561,0.0648619 -0.33244,0.0846957l-1.01242 0.106852 0.490931 0.864021c0.0907709,0.163048 0.137407,0.268918 0.138301,0.317966 8.93414e-005,0.0492271 -0.0176896,0.0889841 -0.0531582,0.118824 -0.0370767,0.0311802 -0.0792459,0.0417225 -0.126507,0.033235 -0.0469936,-0.00866612 -0.144108,-0.0720985 -0.290538,-0.191637l-0.765477 -0.63352 -0.281068 0.978646c-0.0504779,0.171536 -0.0958634,0.274546 -0.138837,0.310462 -0.0284106,0.0238542 -0.0614669,0.0352899 -0.0985436,0.0317162 -0.0368087,-0.00223354 -0.0674528,-0.0176896 -0.0910389,-0.0459215 -0.0347538,-0.0411864 -0.0580719,-0.134638 -0.0700437,-0.280085l-0.0913963 -1.06147 -0.958008 0.521486c-0.107388,0.0611095 -0.179934,0.0930938 -0.217278,0.0956847 -0.0364513,0.00303761 -0.0720092,-0.0168855 -0.106674,-0.0584293 -0.0323416,-0.0384168 -0.044224,-0.076923 -0.0327883,-0.11257 0.011525,-0.0370767 0.0545876,-0.100777 0.13017,-0.194496l0.681943 -0.850799zm-4.00562 5.28338l-1.06361 0.0928258c-0.145537,0.0134906 -0.240597,0.00723666 -0.285446,-0.0187617 -0.0337711,-0.0194764 -0.0551237,-0.047351 -0.0629857,-0.0849637 -0.00920217,-0.0368087 -0.00437773,-0.0704011 0.0133119,-0.100956 0.0288573,-0.0502099 0.123738,-0.11257 0.284463,-0.189046l0.914946 -0.446618 -0.75967 -0.645581c-0.139462,-0.121326 -0.217725,-0.205128 -0.236129,-0.25096 -0.0184937,-0.0462789 -0.0164388,-0.0902349 0.00786205,-0.132315 0.0230501,-0.040025 0.059144,-0.0644152 0.107656,-0.0727239 0.0485124,-0.00777271 0.160904,0.0198338 0.337353,0.080854l0.938621 0.33512 -0.0704011 -1.01563c-0.0130439,-0.179576 -0.00670061,-0.292593 0.0211739,-0.340838 0.018851,-0.0322523 0.0459215,-0.0542303 0.0819261,-0.0637898 0.0352899,-0.0102743 0.0695076,-0.00643258 0.101313,0.0119718 0.0467256,0.0272491 0.100688,0.106852 0.161708,0.239614l0.45305 0.964798 0.717769 -0.816402c0.0815687,-0.0905922 0.138747,-0.145359 0.17234,-0.16144 0.0325203,-0.0166175 0.0724559,-0.0114357 0.116323,0.0136692 0.0447601,0.0259984 0.0691503,0.0578039 0.0715625,0.0959527 0.00250156,0.0393102 -0.0150987,0.114536 -0.0551237,0.227821l-0.345573 1.03145 1.05968 -0.091575c0.14518,-0.0134906 0.240418,-0.00723666 0.285089,0.0187617 0.0358259,0.0205485 0.0571785,0.0486017 0.0649512,0.0861252 0.007326,0.0356472 0.00276958,0.0686142 -0.0135799,0.0971141 -0.0289466,0.0501205 -0.123023,0.113732 -0.283391,0.193246l-0.914767 0.446707 0.756722 0.643973c0.141249,0.122219 0.221209,0.205753 0.23881,0.251496 0.0169749,0.0462789 0.0137586,0.0896988 -0.00929151,0.129813 -0.0242115,0.0419905 -0.0602161,0.0663807 -0.107567,0.0746001 -0.0470829,0.00786205 -0.160011,-0.0184937 -0.338515,-0.0807647l-0.93612 -0.333512 0.0707584 1.01572c0.0111677,0.178415 0.00375234,0.290896 -0.0243902,0.33914 -0.0184937,0.0322523 -0.0455641,0.0543196 -0.0816581,0.0637004 -0.0353792,0.0103636 -0.0694183,0.00634324 -0.101313,-0.0120611 -0.0467256,-0.0268918 -0.100688,-0.106763 -0.161619,-0.239256l-0.448851 -0.966228 -0.721879 0.817653c-0.0801393,0.0941659 -0.137318,0.149022 -0.171536,0.164299 -0.033235,0.015188 -0.0734387,0.00866612 -0.120254,-0.0184937 -0.0435093,-0.0250156 -0.0678995,-0.0570892 -0.0692396,-0.0945232 -0.00196551,-0.0387742 0.0167962,-0.113285 0.0557491,-0.227285l0.349772 -1.0327zm-1.95685 6.33467l-0.967836 0.451085c-0.132225,0.0623603 -0.223622,0.0889841 -0.274546,0.0799606 -0.0385062,-0.00670061 -0.0680782,-0.025641 -0.0882693,-0.0582506 -0.0212633,-0.0313588 -0.0282319,-0.0646832 -0.0220673,-0.0995264 0.0099169,-0.0569998 0.0778164,-0.148039 0.202626,-0.274904l0.707048 -0.73251 -0.93469 -0.346823c-0.172518,-0.0662914 -0.274725,-0.118377 -0.307692,-0.155186 -0.033235,-0.0370767 -0.0463682,-0.0791565 -0.0378808,-0.126865 0.00795139,-0.0456535 0.0335924,-0.0807647 0.0762976,-0.105244 0.0429732,-0.0238542 0.157956,-0.036362 0.344679,-0.0393996l0.996604 -0.00616456 -0.413562 -0.930312c-0.0737067,-0.16421 -0.106227,-0.27267 -0.0966674,-0.327615 0.00678995,-0.03663 0.0247476,-0.06647 0.055213,-0.0878226 0.0296614,-0.02171 0.0630751,-0.02984 0.0993477,-0.0234075 0.0531582,0.00955953 0.131064,0.065934 0.233807,0.169838l0.755739 0.751719 0.395336 -1.01277c0.0455641,-0.112928 0.080586,-0.184043 0.106674,-0.210667 0.0249263,-0.0265344 0.0641472,-0.0354686 0.114,-0.0268024 0.0509246,0.00902349 0.084785,0.0306441 0.100062,0.065666 0.0158134,0.0360939 0.0249263,0.112749 0.026177,0.232913l0.0279639 1.08746 0.964441 -0.448583c0.131779,-0.062271 0.223443,-0.0888947 0.274278,-0.0798713 0.0407397,0.00705797 0.0704904,0.026177 0.0905922,0.0586973 0.0189404,0.0310015 0.0259984,0.0637004 0.0204592,0.0959527 -0.0100956,0.0569998 -0.0768336,0.149022 -0.200304,0.278567l-0.70678 0.7326 0.931385 0.346287c0.174484,0.0665594 0.278209,0.117752 0.310372,0.154739 0.0318056,0.0376127 0.043688,0.0795139 0.0356472,0.125078 -0.00830875,0.0477977 -0.0337711,0.0829982 -0.0755829,0.106942 -0.0414544,0.0235861 -0.156616,0.0372554 -0.345751,0.0399356l-0.993566 0.00670061 0.41374 0.930223c0.0716518,0.163942 0.103011,0.272134 0.0931831,0.327079 -0.00634324,0.0367193 -0.0243009,0.0666487 -0.0550343,0.0877333 -0.0296614,0.021978 -0.0630751,0.02984 -0.0992583,0.0234075 -0.0531582,-0.00938085 -0.131153,-0.065934 -0.233717,-0.169659l-0.752255 -0.754399 -0.398731 1.01537c-0.0430626,0.115876 -0.0779951,0.186902 -0.104887,0.212901 -0.0259984,0.0257303 -0.0661127,0.0334137 -0.11936,0.0237648 -0.0494952,-0.00857678 -0.0834449,-0.0303761 -0.0974715,-0.0650406 -0.0150987,-0.0358259 -0.0229608,-0.112213 -0.025373,-0.232734l-0.0243902 -1.09005zm0.327615 6.62199l-0.755114 0.754846c-0.102921,0.103815 -0.179755,0.160189 -0.23068,0.169123 -0.0385062,0.00678995 -0.0727239,-0.000804073 -0.102921,-0.0245689 -0.0307335,-0.0223354 -0.0485124,-0.0511033 -0.054677,-0.0859465 -0.0101849,-0.0569998 0.0224247,-0.165728 0.0963994,-0.327704l0.41374 -0.930134 -0.996872 -0.00616456c-0.184758,-0.00339497 -0.298668,-0.0173322 -0.342267,-0.040561 -0.0438666,-0.0235861 -0.0705797,-0.058608 -0.0788885,-0.106406 -0.00813007,-0.0455641 0.00384168,-0.0873759 0.0356472,-0.124989 0.0321629,-0.0370767 0.136067,-0.08818 0.310372,-0.154918l0.934512 -0.346555 -0.70687 -0.732779c-0.125435,-0.129188 -0.193067,-0.219869 -0.202805,-0.274814 -0.0062539,-0.0368087 0.000446707,-0.0709371 0.0217993,-0.101492 0.0204592,-0.0304654 0.0489591,-0.0495845 0.0853211,-0.0559277 0.0532475,-0.00911283 0.145627,0.0171536 0.277852,0.0796926l0.96721 0.447869 0.0250156 -1.08693c0.00428839,-0.121772 0.0129545,-0.200482 0.0282319,-0.234343 0.0142946,-0.033503 0.0482444,-0.0553024 0.0980076,-0.0642365 0.051014,-0.00893414 0.0901455,-0.000268024 0.116501,0.0275172 0.0271598,0.0284999 0.062003,0.0974715 0.104261,0.209863l0.398195 1.01224 0.75288 -0.751272c0.102564,-0.103636 0.179576,-0.160011 0.230412,-0.168855 0.0407397,-0.007326 0.0751362,0.000446707 0.105155,0.0242115 0.0284999,0.0226034 0.0462789,0.0508353 0.0519967,0.0831769 0.0100956,0.0569998 -0.0210846,0.166175 -0.0928258,0.330117l-0.413562 0.930223 0.993477 0.00678995c0.186813,0.00294827 0.301706,0.0155454 0.344679,0.0393102 0.0427052,0.0245689 0.0682569,0.0598588 0.0762976,0.105423 0.00848744,0.047619 -0.00339497,0.0894308 -0.0344858,0.126329 -0.0309121,0.0361833 -0.134459,0.0885374 -0.311176,0.155722l-0.931474 0.346109 0.707048 0.732689c0.123291,0.129545 0.189851,0.220405 0.19941,0.27535 0.00652193,0.0367193 -8.93414e-005,0.0709371 -0.02171,0.101403 -0.0204592,0.0307335 -0.0491378,0.0495845 -0.0853211,0.0559277 -0.0531582,0.00938085 -0.145805,-0.0171536 -0.277584,-0.0795139l-0.964977 -0.45171 -0.0273385 1.09059c-0.000893414,0.123559 -0.00947019,0.202269 -0.0258197,0.235951 -0.0156348,0.0330563 -0.0507459,0.0539622 -0.103904,0.0631644 -0.0494952,0.0088448 -0.0888054,-8.93414e-005 -0.11391,-0.0278745 -0.0264451,-0.0284106 -0.0600375,-0.0975609 -0.103368,-0.210042l-0.395872 -1.0159zm2.57277 6.11051l-0.451442 0.967747c-0.0611095,0.132672 -0.114,0.211918 -0.158938,0.237738 -0.0337711,0.0196551 -0.0686142,0.0240328 -0.105066,0.0120611 -0.0364513,-0.0103636 -0.0630751,-0.0314482 -0.0807647,-0.062003 -0.029036,-0.0500312 -0.0355579,-0.163495 -0.0215313,-0.340927l0.0707584 -1.01554 -0.938979 0.33512c-0.174752,0.0601268 -0.286607,0.0859465 -0.335388,0.0789778 -0.0493165,-0.00723666 -0.0864825,-0.0310015 -0.110605,-0.072992 -0.0231394,-0.0401143 -0.0262664,-0.0834449 -0.00920217,-0.129634 0.0176003,-0.0458322 0.0976502,-0.129366 0.238631,-0.251675l0.759581 -0.645403 -0.914767 -0.446797c-0.162065,-0.0784418 -0.256678,-0.140623 -0.284642,-0.188778 -0.0184043,-0.0326096 -0.0238542,-0.0668274 -0.0142053,-0.102832 0.00875546,-0.0356472 0.029036,-0.0634324 0.0610202,-0.0818368 0.0469043,-0.0268024 0.142678,-0.0336817 0.288394,-0.0201018l1.06209 0.0900562 -0.348253 -1.02984c-0.0377021,-0.115965 -0.0564638,-0.192888 -0.0536942,-0.229965 0.00196551,-0.036362 0.0264451,-0.0684355 0.070133,-0.0938979 0.0449387,-0.0258197 0.0846957,-0.0310908 0.118913,-0.0139373 0.0352005,0.0174216 0.091575,0.0703117 0.169659,0.161529l0.720539 0.814973 0.45046 -0.963547c0.0609309,-0.132404 0.114,-0.21165 0.15876,-0.23747 0.0357366,-0.0208166 0.0708478,-0.0252836 0.10712,-0.0131332 0.0343965,0.011525 0.0609309,0.0318949 0.0772803,0.0603055 0.029036,0.0502099 0.0369874,0.163495 0.0257303,0.342088l-0.0704904 1.01554 0.935941 -0.333422c0.176449,-0.0611989 0.288752,-0.0887161 0.337353,-0.0810327 0.0485124,0.00848744 0.084517,0.0328777 0.107746,0.072992 0.0242115,0.0419011 0.0273385,0.0852317 0.010721,0.130617 -0.0167068,0.044492 -0.0959527,0.129009 -0.239167,0.252658l-0.756901 0.643884 0.914946 0.446618c0.160279,0.0795139 0.253819,0.142232 0.281604,0.190565 0.0187617,0.0322523 0.0242115,0.0667381 0.0142946,0.102743 -0.00875546,0.0358259 -0.0291253,0.0633431 -0.0610202,0.0817474 -0.0467256,0.0269811 -0.142857,0.0336817 -0.288126,0.0202805l-1.06129 -0.0945232 0.347449 1.03413c0.0412757,0.116501 0.0603055,0.193335 0.0563745,0.23059 -0.00339497,0.036362 -0.0292147,0.0679888 -0.0760296,0.09497 -0.0434199,0.0251049 -0.0834449,0.0302867 -0.116591,0.0127758 -0.0344858,-0.0176896 -0.0897882,-0.0712051 -0.169034,-0.162065l-0.719377 -0.81935zm4.50754 4.86214l-0.0933618 1.06379c-0.0119718,0.145627 -0.0345751,0.238095 -0.0679888,0.277673 -0.0250156,0.0301081 -0.0562851,0.0461895 -0.0945232,0.047351 -0.0378808,0.00268024 -0.0700437,-0.00786205 -0.0971141,-0.0306441 -0.044492,-0.0370767 -0.0893414,-0.141517 -0.136871,-0.313052l-0.2808 -0.978378 -0.767711 0.636022c-0.143661,0.116233 -0.239971,0.178683 -0.288215,0.188868 -0.0487804,0.0101849 -0.091843,0.000446707 -0.12883,-0.0307335 -0.0355579,-0.02984 -0.0532475,-0.0694183 -0.0530688,-0.118735 0.000804073,-0.0490485 0.0475296,-0.154829 0.138122,-0.318145l0.493075 -0.866165 -1.01242 -0.107031c-0.17904,-0.0182257 -0.289198,-0.0443134 -0.332082,-0.0800499 -0.0283212,-0.0242115 -0.0452068,-0.0545876 -0.0484231,-0.0917537 -0.00402036,-0.0364513 0.00562851,-0.0694183 0.0293933,-0.0977395 0.0348432,-0.0412757 0.122576,-0.0804966 0.264004,-0.117484l1.02886 -0.278656 -0.679442 -0.848654c-0.0750468,-0.0960421 -0.119003,-0.161976 -0.129098,-0.197713 -0.0105423,-0.0348432 0.00142946,-0.0733493 0.0338604,-0.112302 0.0333244,-0.0395783 0.0688823,-0.0581613 0.106942,-0.0536942 0.0390422,0.00428839 0.109979,0.0348432 0.214598,0.0938085l0.955864 0.519252 0.0937192 -1.05941c0.0120611,-0.14518 0.0346645,-0.237827 0.0678995,-0.277495 0.0265344,-0.0317162 0.0579826,-0.047887 0.0962207,-0.0490485 0.036362,-0.000893414 0.0681675,0.00920217 0.0932725,0.0302867 0.0444027,0.0372554 0.0906816,0.140981 0.141159,0.312695l0.281158 0.978467 0.765388 -0.633431c0.145001,-0.117931 0.241043,-0.182167 0.289288,-0.191637 0.0485124,-0.00857678 0.0906816,0.00205485 0.126239,0.0318056 0.0370767,0.0311802 0.054945,0.0706691 0.054677,0.119003 -0.000357366,0.047619 -0.0459215,0.154114 -0.138211,0.319306l-0.49111 0.863842 1.0126 0.106852c0.177789,0.0199231 0.287233,0.0468149 0.329849,0.0827302 0.0284999,0.0238542 0.0455641,0.0544983 0.0484231,0.091575 0.00410971,0.0367193 -0.00562851,0.069597 -0.029304,0.0978289 -0.0346645,0.0411864 -0.122666,0.0804073 -0.263825,0.117573l-1.02957 0.2741 0.680067 0.852943c0.0787098,0.0954167 0.122844,0.161083 0.131957,0.197445 0.00929151,0.0352899 -0.00419905,0.0738854 -0.0390422,0.11525 -0.0322523,0.0385062 -0.0679888,0.0569998 -0.105155,0.051818 -0.0385062,-0.0047351 -0.108729,-0.0361833 -0.21433,-0.0944339l-0.956132 -0.523898zm18.6752 -32.0761l0.276154 1.03163c0.0383275,0.140713 0.0487804,0.235504 0.0312695,0.284106 -0.0134012,0.03663 -0.0374341,0.0624497 -0.072992,0.0768336 -0.0344858,0.0155454 -0.0685249,0.0163495 -0.101671,0.00446707 -0.0544089,-0.0200125 -0.132315,-0.102207 -0.235415,-0.247476l-0.598766 -0.823371 -0.503886 0.860179c-0.0953273,0.158581 -0.164388,0.250067 -0.206111,0.276333 -0.0426159,0.026177 -0.0861252,0.0315375 -0.131511,0.0150987 -0.043956,-0.0159028 -0.073796,-0.0469043 -0.0906816,-0.0931831 -0.0159028,-0.0467256 -0.00813007,-0.161976 0.0213526,-0.346645l0.16689 -0.982667 -0.988027 0.246225c-0.174573,0.043956 -0.286875,0.0570892 -0.339408,0.0379701 -0.0349325,-0.0127758 -0.0611095,-0.0357366 -0.0770123,-0.0694183 -0.0160815,-0.0331457 -0.0182257,-0.0675421 -0.00553917,-0.102028 0.0184937,-0.0508353 0.0875546,-0.117663 0.20754,-0.20084l0.871615 -0.613686 -0.928704 -0.564995c-0.103547,-0.0644152 -0.167247,-0.111498 -0.188868,-0.141696 -0.0217993,-0.029304 -0.0240328,-0.069329 -0.00661127,-0.116859 0.0177789,-0.0486911 0.0451174,-0.0782631 0.0821941,-0.0872866 0.0379701,-0.00938085 0.115161,-0.00491378 0.233896,0.014652l1.07558 0.16144 -0.274189 -1.02769c-0.0383275,-0.140891 -0.0487804,-0.235593 -0.0314482,-0.284016 0.014384,-0.0391316 0.0384168,-0.0650406 0.0738854,-0.0790672 0.0337711,-0.0134906 0.0670954,-0.0147413 0.0979182,-0.00339497 0.0544983,0.0198338 0.133476,0.101403 0.239703,0.245332l0.598677 0.823549 0.502724 -0.857231c0.0960421,-0.160189 0.16421,-0.253283 0.206379,-0.278835 0.0425265,-0.0245689 0.0856784,-0.029304 0.129366,-0.0133119 0.0456535,0.0166175 0.0756722,0.0477977 0.0922897,0.0931831 0.0156348,0.0448494 0.00947019,0.160547 -0.0209059,0.34736l-0.165728 0.97945 0.987759 -0.245778c0.174037,-0.0419905 0.285893,-0.0541409 0.338425,-0.0352005 0.0348432,0.0127758 0.0611989,0.0357366 0.0768336,0.0696863 0.0162601,0.0327883 0.0184043,0.0672741 0.00580719,0.10176 -0.018583,0.0504779 -0.0875546,0.117752 -0.20763,0.20075l-0.873849 0.609934 0.930849 0.569105c0.106584,0.062003 0.170285,0.108997 0.191459,0.140087 0.0208166,0.0300187 0.0212633,0.0705797 0.00294827,0.121504 -0.0174216,0.047351 -0.044492,0.0767443 -0.0812114,0.0844277 -0.0381488,0.00893414 -0.114536,0.00321629 -0.233539,-0.015188l-1.07782 -0.165192zm-12.7766 35.1033l0.276154 1.03154c0.0385955,0.140981 0.0488698,0.235593 0.0311802,0.284195 -0.0132225,0.0368087 -0.0372554,0.0626284 -0.0728133,0.0768336 -0.0345751,0.0155454 -0.0685249,0.0165282 -0.101671,0.00446707 -0.0544983,-0.0196551 -0.132404,-0.102475 -0.235683,-0.247386l-0.598498 -0.82346 -0.503886 0.860358c-0.095238,0.158313 -0.164388,0.249977 -0.2062,0.276065 -0.0423478,0.0262664 -0.0861252,0.0318056 -0.1316,0.015188 -0.0435986,-0.0159028 -0.073796,-0.0470829 -0.0905029,-0.0934512 -0.0159921,-0.0464576 -0.00821941,-0.161797 0.0210846,-0.346198l0.166979 -0.982577 -0.987938 0.2456c-0.174573,0.0441347 -0.286965,0.0573572 -0.339408,0.0384168 -0.0349325,-0.0130439 -0.0611989,-0.0358259 -0.0768336,-0.0696863 -0.0162601,-0.0327883 -0.018583,-0.0671848 -0.00589654,-0.101849 0.0186724,-0.0506566 0.087644,-0.117484 0.207987,-0.200661l0.871347 -0.613686 -0.928615 -0.565174c-0.103368,-0.0645939 -0.167247,-0.111587 -0.188957,-0.141696 -0.0217993,-0.029036 -0.0237648,-0.0694183 -0.00661127,-0.117127 0.0177789,-0.0485124 0.0448494,-0.0781738 0.0821048,-0.0869292 0.0381488,-0.00938085 0.11525,-0.00491378 0.233717,0.0147413l1.07594 0.161083 -0.274368 -1.02761c-0.0383275,-0.140623 -0.0486911,-0.235415 -0.0310015,-0.284106 0.0140266,-0.0388635 0.0380595,-0.0647725 0.0736173,-0.0789778 0.0337711,-0.0132225 0.0672741,-0.0147413 0.0980076,-0.00339497 0.0544983,0.0199231 0.133387,0.101492 0.239524,0.2456l0.598856 0.823192 0.502635 -0.856963c0.0958634,-0.160457 0.16421,-0.253551 0.2062,-0.279013 0.0427052,-0.0246582 0.0860358,-0.029036 0.129545,-0.0132225 0.0455641,0.0165282 0.0758509,0.047619 0.092111,0.0930938 0.0159921,0.0449387 0.00955953,0.160547 -0.0207272,0.34727l-0.165996 0.979808 0.988116 -0.246046c0.173858,-0.0419905 0.285893,-0.0541409 0.338247,-0.0350218 0.0349325,0.0126865 0.0614669,0.0356472 0.0767443,0.0695076 0.0164388,0.0330563 0.0186724,0.0672741 0.00607522,0.101939 -0.018583,0.0505673 -0.0878226,0.117573 -0.207808,0.20075l-0.87367 0.609666 0.930759 0.568926c0.106584,0.0627177 0.170463,0.109265 0.191459,0.140355 0.0208166,0.0300187 0.0214419,0.0709371 0.00276958,0.121683 -0.0171536,0.0471723 -0.0444027,0.0767443 -0.081122,0.0846063 -0.0377914,0.00875546 -0.114536,0.00321629 -0.233628,-0.0153667l-1.07773 -0.165282z"/>
 </g>
</svg>
